<svg width="25" height="24" viewBox="0 0 25 24" fill="none" xmlns="http://www.w3.org/2000/svg">
<path d="M5.5 7H6.5C7.03043 7 7.53914 6.78929 7.91421 6.41421C8.28929 6.03914 8.5 5.53043 8.5 5C8.5 4.73478 8.60536 4.48043 8.79289 4.29289C8.98043 4.10536 9.23478 4 9.5 4H15.5C15.7652 4 16.0196 4.10536 16.2071 4.29289C16.3946 4.48043 16.5 4.73478 16.5 5C16.5 5.53043 16.7107 6.03914 17.0858 6.41421C17.4609 6.78929 17.9696 7 18.5 7H19.5C20.0304 7 20.5391 7.21071 20.9142 7.58579C21.2893 7.96086 21.5 8.46957 21.5 9V18C21.5 18.5304 21.2893 19.0391 20.9142 19.4142C20.5391 19.7893 20.0304 20 19.5 20H5.5C4.96957 20 4.46086 19.7893 4.08579 19.4142C3.71071 19.0391 3.5 18.5304 3.5 18V9C3.5 8.46957 3.71071 7.96086 4.08579 7.58579C4.46086 7.21071 4.96957 7 5.5 7Z" stroke="#FEFEFE" stroke-width="2" stroke-linecap="round" stroke-linejoin="round"/>
<path d="M9.5 13C9.5 13.7956 9.81607 14.5587 10.3787 15.1213C10.9413 15.6839 11.7044 16 12.5 16C13.2956 16 14.0587 15.6839 14.6213 15.1213C15.1839 14.5587 15.5 13.7956 15.5 13C15.5 12.2044 15.1839 11.4413 14.6213 10.8787C14.0587 10.3161 13.2956 10 12.5 10C11.7044 10 10.9413 10.3161 10.3787 10.8787C9.81607 11.4413 9.5 12.2044 9.5 13Z" stroke="#FEFEFE" stroke-width="2" stroke-linecap="round" stroke-linejoin="round"/>
</svg>
