<svg width="45" height="46" viewBox="0 0 45 46" fill="none" xmlns="http://www.w3.org/2000/svg">
<path d="M18.75 19.25L26.25 26.75M26.25 19.25L18.75 26.75M5.625 23C5.625 25.2161 6.06148 27.4104 6.90953 29.4578C7.75758 31.5052 9.00058 33.3654 10.5676 34.9324C12.1346 36.4994 13.9948 37.7424 16.0422 38.5905C18.0896 39.4385 20.2839 39.875 22.5 39.875C24.7161 39.875 26.9104 39.4385 28.9578 38.5905C31.0052 37.7424 32.8654 36.4994 34.4324 34.9324C35.9994 33.3654 37.2424 31.5052 38.0905 29.4578C38.9385 27.4104 39.375 25.2161 39.375 23C39.375 20.7839 38.9385 18.5896 38.0905 16.5422C37.2424 14.4948 35.9994 12.6346 34.4324 11.0676C32.8654 9.50058 31.0052 8.25758 28.9578 7.40953C26.9104 6.56148 24.7161 6.125 22.5 6.125C20.2839 6.125 18.0896 6.56148 16.0422 7.40953C13.9948 8.25758 12.1346 9.50058 10.5676 11.0676C9.00058 12.6346 7.75758 14.4948 6.90953 16.5422C6.06148 18.5896 5.625 20.7839 5.625 23Z" stroke="#F72431" stroke-width="2" stroke-linecap="round" stroke-linejoin="round"/>
</svg>
